HIERARCHY
ROOT Hips
{
	OFFSET 55.054199 -60.069317 96.744995
	CHANNELS 6 Xposition Yposition Zposition Xrotation Yrotation Zrotation
	JOINT spine
	{
		OFFSET 0.000000 -0.467659 8.132492
		CHANNELS 3 Xrotation Yrotation Zrotation
		JOINT spine1
		{
			OFFSET 0.000000 -0.000004 10.349800
			CHANNELS 3 Xrotation Yrotation Zrotation
			JOINT spine2
			{
				OFFSET 0.000000 0.000000 9.916992
				CHANNELS 3 Xrotation Yrotation Zrotation
				JOINT Neck
				{
					OFFSET 0.000000 -1.213905 25.460991
					CHANNELS 3 Xrotation Yrotation Zrotation
					JOINT Head
					{
						OFFSET 0.000000 -0.000004 7.692444
						CHANNELS 3 Xrotation Yrotation Zrotation
						End Site
						{
							OFFSET 0.000000 6.140625 18.619995
						}
					}
				}
				JOINT RightShoulder
				{
					OFFSET -4.175751 0.581440 10.709587
					CHANNELS 3 Xrotation Yrotation Zrotation
					JOINT RightArm
					{
						OFFSET 0.000000 0.000000 14.046600
						CHANNELS 3 Xrotation Yrotation Zrotation
						JOINT RightArmRoll
						{
							OFFSET 0.000000 -0.000004 7.090973
							CHANNELS 3 Xrotation Yrotation Zrotation
							JOINT RightForeArm
							{
								OFFSET 0.000000 -0.000004 20.653503
								CHANNELS 3 Xrotation Yrotation Zrotation
								JOINT RightForeArmRoll
								{
									OFFSET 0.000000 0.000000 7.957184
									CHANNELS 3 Xrotation Yrotation Zrotation
									JOINT RightHand
									{
										OFFSET 0.000000 -0.000004 15.968292
										CHANNELS 3 Xrotation Yrotation Zrotation
										End Site
										{
											OFFSET 0.000000 0.000000 0.100006
										}
									}
								}
							}
						}
					}
				}
				JOINT LeftShoulder
				{
					OFFSET 4.175751 0.581440 10.709587
					CHANNELS 3 Xrotation Yrotation Zrotation
					JOINT LeftArm
					{
						OFFSET 0.000000 0.000000 14.046600
						CHANNELS 3 Xrotation Yrotation Zrotation
						JOINT LeftArmRoll
						{
							OFFSET 0.000000 -0.000004 7.090973
							CHANNELS 3 Xrotation Yrotation Zrotation
							JOINT LeftForeArm
							{
								OFFSET 0.000000 -0.000004 20.653503
								CHANNELS 3 Xrotation Yrotation Zrotation
								JOINT LeftForeArmRoll
								{
									OFFSET 0.000000 0.000000 7.957184
									CHANNELS 3 Xrotation Yrotation Zrotation
									JOINT LeftHand
									{
										OFFSET 0.000000 -0.000004 15.968292
										CHANNELS 3 Xrotation Yrotation Zrotation
										End Site
										{
											OFFSET 0.000000 0.000000 0.100006
										}
									}
								}
							}
						}
					}
				}
			}
		}
	}
	JOINT RightUpLeg
	{
		OFFSET -7.208340 1.108841 -1.321823
		CHANNELS 3 Xrotation Yrotation Zrotation
		JOINT RightUpLegRoll
		{
			OFFSET 0.000000 -0.000004 18.723801
			CHANNELS 3 Xrotation Yrotation Zrotation
			JOINT RightLeg
			{
				OFFSET 0.000000 0.000004 -23.186600
				CHANNELS 3 Xrotation Yrotation Zrotation
				JOINT RightLegRoll
				{
					OFFSET 0.000000 -0.000004 23.262398
					CHANNELS 3 Xrotation Yrotation Zrotation
					JOINT RightFoot
					{
						OFFSET 0.000000 -0.000004 19.362099
						CHANNELS 3 Xrotation Yrotation Zrotation
						JOINT RightToeBase
						{
							OFFSET 0.000000 0.000000 16.185699
							CHANNELS 3 Xrotation Yrotation Zrotation
							End Site
							{
								OFFSET 0.006859 0.903519 7.838623
							}
						}
					}
				}
			}
		}
	}
	JOINT LeftUpLeg
	{
		OFFSET 7.208340 1.108841 -1.321823
		CHANNELS 3 Xrotation Yrotation Zrotation
		JOINT LeftUpLegRoll
		{
			OFFSET 0.000000 -0.000004 18.723900
			CHANNELS 3 Xrotation Yrotation Zrotation
			JOINT LeftLeg
			{
				OFFSET 0.000000 -0.000004 23.186501
				CHANNELS 3 Xrotation Yrotation Zrotation
				JOINT LeftLegRoll
				{
					OFFSET 0.000000 -0.000004 23.477509
					CHANNELS 3 Xrotation Yrotation Zrotation
					JOINT LeftFoot
					{
						OFFSET 0.000000 -0.000004 19.147003
						CHANNELS 3 Xrotation Yrotation Zrotation
						JOINT LeftToeBase
						{
							OFFSET 0.000000 0.000000 16.185699
							CHANNELS 3 Xrotation Yrotation Zrotation
							End Site
							{
								OFFSET -0.030746 0.903519 7.838623
							}
						}
					}
				}
			}
		}
	}
}
MOTION
Frames: 8
Frame Time: 0.041667
52.540607 -38.712013 85.483788 17.446772 2.080775 -1.169321 1.532031 -0.849929 -0.206286 7.064694 -1.705699 -0.382695 8.710089 -1.710169 -0.362231 -23.227131 2.062700 -3.058971 2.669896 -1.082364 -3.759360 -13.541320 -53.445940 -15.793409 -55.114340 -160.753802 -51.290455 0.000000 0.000027 -0.000004 0.070897 -8.634906 -1.419127 -0.000002 0.000003 -3.131500 -5.000213 -7.998752 0.000186 -13.355830 58.465204 15.758059 -58.390058 149.419131 71.800841 -0.000000 0.000002 0.000004 0.121776 14.807772 -0.000484 -0.000006 0.000002 3.012911 -5.000344 7.998812 -0.000185 -56.629969 -176.442282 0.675061 179.999991 0.000005 -0.655994 131.272493 -4.828132 -3.618820 0.000000 0.000004 0.583052 73.697365 6.774390 2.114140 25.456950 -7.355614 0.000058 -57.720283 167.700883 0.187602 -0.000004 0.000009 -0.567213 -50.747660 4.060252 3.044919 -0.000002 -0.000002 -0.737594 74.446050 -6.282637 -3.533287 25.469543 7.355024 -0.015500 
52.527706 -38.800613 85.578293 17.343671 2.078481 -1.153286 1.522564 -0.845729 -0.202235 7.045837 -1.697243 -0.374520 8.691231 -1.701615 -0.354157 -23.189167 2.020864 -3.074584 2.699554 -1.037677 -3.764855 -13.544076 -53.484466 -15.798233 -55.114719 -160.660802 -51.301363 0.000001 0.000027 -0.000004 0.070773 -8.677685 -1.420522 -0.000002 0.000002 -3.131269 -5.000208 -7.998756 0.000185 -13.355813 58.475538 15.758413 -58.333039 149.432409 71.754819 -0.000000 0.000002 0.000006 0.125082 14.818271 0.011656 -0.000006 0.000003 3.013611 -5.000344 7.998812 -0.000187 -56.353176 -176.436422 0.683658 179.999991 0.000005 -0.655994 131.470514 -4.838335 -3.609404 0.000001 0.000004 0.581344 73.673692 6.777070 2.108055 25.456953 -7.355616 0.000058 -57.444582 167.713164 0.157139 -0.000006 0.000009 -0.570850 -50.560496 4.066008 3.034893 -0.000003 -0.000002 -0.736749 74.429985 -6.289289 -3.514097 25.469540 7.355024 -0.015500 
52.529007 -38.879211 85.652794 17.240466 2.075835 -1.136946 1.513062 -0.841606 -0.198208 7.026899 -1.688936 -0.366485 8.672299 -1.693209 -0.346222 -23.153657 1.981605 -3.089799 2.733291 -0.994025 -3.770846 -13.546137 -53.523562 -15.802227 -55.115225 -160.564210 -51.314115 0.000000 0.000027 -0.000004 0.070673 -8.722445 -1.421453 0.000000 0.000001 -3.130989 -5.000210 -7.998753 0.000184 -13.358099 58.488658 15.761618 -58.277927 149.442695 71.710477 -0.000001 0.000002 0.000003 0.127705 14.828669 0.023113 -0.000007 0.000002 3.014289 -5.000344 7.998811 -0.000185 -56.077345 -176.432146 0.691969 179.999991 0.000005 -0.657004 131.666417 -4.845535 -3.597207 0.000000 0.000004 0.579601 73.651084 6.779146 2.103820 25.456953 -7.355615 0.000057 -57.169342 167.727152 0.128148 -0.000004 0.000010 -0.574286 -50.374250 4.070886 3.024340 -0.000002 -0.000002 -0.735749 74.414501 -6.295526 -3.496120 25.469547 7.355023 -0.015500 
52.528309 -38.954914 85.739693 17.137262 2.072824 -1.120251 1.503543 -0.837592 -0.194223 7.007927 -1.680826 -0.358649 8.653324 -1.685010 -0.338484 -23.121102 1.945494 -3.104567 2.771812 -0.951688 -3.777467 -13.547460 -53.563248 -15.805363 -55.115580 -160.464571 -51.326942 0.000001 0.000027 -0.000005 0.070593 -8.768096 -1.421930 -0.000001 0.000004 -3.130680 -5.000212 -7.998753 0.000185 -13.362979 58.504962 15.768001 -58.225286 149.449511 71.668205 -0.000000 0.000002 0.000002 0.127807 14.838967 0.033913 -0.000006 0.000003 3.014922 -5.000345 7.998812 -0.000187 -55.803001 -176.428390 0.697667 179.999991 0.000005 -0.657004 131.859247 -4.850951 -3.584778 -0.000000 0.000004 0.577813 73.630136 6.780480 2.101579 25.456953 -7.355616 0.000058 -56.895039 167.742985 0.101964 -0.000006 0.000011 -0.577458 -50.189634 4.074491 3.013077 -0.000003 -0.000002 -0.734552 74.399782 -6.301211 -3.479925 25.469547 7.355023 -0.015500 
52.521107 -39.036411 85.815384 17.033648 2.069462 -1.103137 1.494039 -0.833724 -0.190303 6.988964 -1.672993 -0.351071 8.634361 -1.677076 -0.331003 -23.092118 1.913076 -3.118851 2.815848 -0.910953 -3.784826 -13.547976 -53.603536 -15.807534 -55.116382 -160.361435 -51.340220 -0.000002 0.000027 -0.000005 0.070538 -8.813585 -1.421933 -0.000002 0.000002 -3.130350 -5.000210 -7.998755 0.000186 -13.370841 58.525186 15.778060 -58.175364 149.453036 71.627921 -0.000000 0.000002 0.000004 0.123548 14.849272 0.044064 -0.000006 0.000003 3.015511 -5.000343 7.998811 -0.000186 -55.529991 -176.426846 0.702407 179.999991 0.000005 -0.658002 132.048539 -4.853187 -3.570721 0.000001 0.000004 0.575966 73.611121 6.780957 2.101698 25.456953 -7.355615 0.000058 -56.621677 167.760689 0.079600 -0.000006 0.000010 -0.580304 -50.006974 4.076446 3.000893 -0.000003 -0.000002 -0.733118 74.386183 -6.306215 -3.465876 25.469543 7.355023 -0.015500 
52.524509 -39.088428 85.960495 16.929835 2.065717 -1.085552 1.484557 -0.830036 -0.186469 6.970066 -1.665477 -0.343814 8.615453 -1.669488 -0.323833 -23.067108 1.884923 -3.132578 2.866115 -0.872111 -3.793050 -13.547694 -53.644531 -15.808773 -55.117294 -160.256018 -51.351681 -0.000000 0.000027 -0.000004 0.070508 -8.857846 -1.421463 -0.000002 0.000003 -3.130010 -5.000212 -7.998753 0.000185 -13.381947 58.549748 15.792115 -58.129377 149.452353 71.591106 0.000001 0.000002 0.000002 0.113085 14.859474 0.053590 -0.000006 0.000002 3.016019 -5.000343 7.998812 -0.000186 -55.258799 -176.426450 0.703803 179.999991 0.000005 -0.658002 132.233501 -4.852145 -3.556128 0.000001 0.000004 0.574051 73.594612 6.780388 2.104713 25.456953 -7.355615 0.000057 -56.349511 167.780879 0.061479 -0.000003 0.000009 -0.582761 -49.826872 4.076361 2.987603 -0.000002 -0.000002 -0.731405 74.373978 -6.310332 -3.454528 25.469540 7.355024 -0.015501 
52.523407 -39.175419 86.029884 16.825812 2.061522 -1.067664 1.475046 -0.826446 -0.182645 6.951085 -1.658159 -0.336775 8.596475 -1.662076 -0.316883 -23.046149 1.860072 -3.145956 2.922962 -0.834442 -3.802055 -13.545612 -53.687141 -15.807880 -55.118547 -160.145601 -51.364781 0.000000 0.000026 -0.000004 0.070499 -8.904375 -1.420389 0.000000 0.000002 -3.129630 -5.000212 -7.998752 0.000184 -13.396716 58.578769 15.810665 -58.086101 149.448337 71.556572 0.000001 0.000002 0.000003 0.100621 14.869877 0.062338 -0.000005 0.000003 3.016501 -5.000344 7.998810 -0.000184 -54.989491 -176.427775 0.703277 179.999991 0.000005 -0.658999 132.414528 -4.847831 -3.539985 -0.000000 0.000004 0.572090 73.580118 6.778877 2.110273 25.456950 -7.355613 0.000057 -56.078401 167.802954 0.046817 -0.000006 0.000010 -0.584901 -49.648864 4.074738 2.973505 -0.000002 -0.000002 -0.729463 74.362831 -6.313846 -3.445137 25.469547 7.355024 -0.015501 
52.514309 -39.280106 86.063400 16.722087 2.056775 -1.049658 1.465412 -0.822862 -0.178753 6.931884 -1.650851 -0.329816 8.577269 -1.654685 -0.310014 -23.029030 1.837195 -3.159171 2.985831 -0.797094 -3.811666 -13.541088 -53.731951 -15.804113 -55.120795 -160.026934 -51.384790 0.000001 0.000026 -0.000004 0.070493 -8.956986 -1.418625 0.000000 0.000002 -3.129161 -5.000212 -7.998753 0.000185 -13.415084 58.611875 15.833635 -58.045523 149.440086 71.526540 0.000001 0.000002 0.000002 0.091376 14.880383 0.070177 -0.000008 0.000003 3.016949 -5.000344 7.998811 -0.000186 -54.722011 -176.430261 0.701274 179.999991 0.000005 -0.658999 132.592741 -4.841028 -3.522963 0.000001 0.000004 0.570115 73.566861 6.776666 2.117754 25.456957 -7.355616 0.000058 -55.808383 167.826272 0.034036 -0.000005 0.000009 -0.586850 -49.471911 4.072382 2.958999 -0.000002 -0.000002 -0.727370 74.352299 -6.317021 -3.436767 25.469548 7.355025 -0.015501 
